<svg width="272" height="72" viewBox="0 0 272 72" fill="none" xmlns="http://www.w3.org/2000/svg">
<g opacity="0.24">
<path opacity="0.24" d="M15.0193 58.3876C11.0233 56.2506 7.85411 53.2864 5.51166 49.4261C3.23811 45.6347 2.06688 41.2918 2.06688 36.4664C2.06688 31.641 3.23811 27.2981 5.51166 23.5067C7.78522 19.7153 10.9544 16.7511 15.0193 14.5452C19.0152 12.4082 23.5623 11.3742 28.6606 11.3742C33.0699 11.3742 37.0659 12.1325 40.5795 13.718C44.0932 15.3035 47.0557 17.5094 49.3982 20.4736L40.6484 28.3321C37.5481 24.5407 33.7589 22.6795 29.2807 22.6795C26.6626 22.6795 24.3202 23.2309 22.2533 24.4028C20.1864 25.5747 18.6018 27.1602 17.4995 29.2283C16.3972 31.2963 15.846 33.709 15.846 36.4664C15.846 39.1548 16.3972 41.5675 17.4995 43.7045C18.6018 45.7726 20.1864 47.427 22.2533 48.5299C24.3202 49.7018 26.5937 50.2533 29.2807 50.2533C33.7589 50.2533 37.5481 48.3921 40.6484 44.6007L49.3293 52.4592C46.9868 55.4234 44.0243 57.6293 40.5106 59.2148C36.997 60.8003 33.001 61.5586 28.5917 61.5586C23.5623 61.5586 19.0152 60.5245 15.0193 58.3876Z" fill="#3626A7"/>
</g>
<path d="M12.9524 56.3195C8.95643 54.1826 5.78723 51.2184 3.44478 47.358C1.17123 43.5666 0 39.2238 0 34.3983C0 29.5729 1.17123 25.2301 3.44478 21.4387C5.71834 17.6472 8.88754 14.6831 12.9524 12.4772C16.9483 10.3402 21.4954 9.30617 26.5937 9.30617C31.003 9.30617 34.999 10.0644 38.5127 11.6499C42.0263 13.2354 44.9889 15.4413 47.3313 18.4055L38.5816 26.2641C35.4813 22.4727 31.692 20.6114 27.2138 20.6114C24.5957 20.6114 22.2533 21.1629 20.1864 22.3348C18.1196 23.5067 16.535 25.0922 15.4326 27.1602C14.3303 29.2283 13.7791 31.641 13.7791 34.3983C13.7791 37.0868 14.3303 39.4995 15.4326 41.6365C16.535 43.7045 18.1196 45.3589 20.1864 46.4619C22.2533 47.6338 24.5268 48.1853 27.2138 48.1853C31.692 48.1853 35.4813 46.324 38.5816 42.5326L47.2624 50.3912C44.92 53.3554 41.9574 55.5613 38.4438 57.1468C34.9301 58.7322 30.9341 59.4905 26.5248 59.4905C21.4954 59.4905 16.9483 58.4565 12.9524 56.3195Z" fill="#3626A7"/>
<g opacity="0.24">
<path opacity="0.24" d="M93.2158 23.2309V60.5935H80.7457V56.5953C79.3678 58.1118 77.7143 59.2837 75.7852 60.042C73.8561 60.8003 71.7893 61.2139 69.6535 61.2139C64.8308 61.2139 60.9726 59.7662 58.079 56.9399C55.1854 54.1136 53.7386 49.8397 53.7386 44.1181V23.2309H66.8288V41.9811C66.8288 44.8074 67.3799 46.8065 68.4134 48.1163C69.4468 49.4261 71.0314 50.0465 73.0294 50.0465C75.0963 50.0465 76.7497 49.2882 78.0588 47.8406C79.3678 46.3929 79.9878 44.187 79.9878 41.1539V23.2309H93.2158Z" fill="#3626A7"/>
</g>
<path d="M91.1489 21.1629V58.5254H78.6788V54.5272C77.3009 56.0438 75.6474 57.2157 73.7183 57.974C71.7893 58.7322 69.7224 59.1459 67.5866 59.1459C62.7639 59.1459 58.9058 57.6982 56.0122 54.8719C53.1185 52.0456 51.6717 47.7716 51.6717 42.0501V21.1629H64.7619V39.9131C64.7619 42.7394 65.3131 44.7385 66.3465 46.0483C67.3799 47.358 68.9645 47.9784 70.9625 47.9784C73.0294 47.9784 74.6829 47.2202 75.9919 45.7725C77.3009 44.3249 77.921 42.119 77.921 39.0859V21.1629H91.1489Z" fill="#3626A7"/>
<g opacity="0.24">
<path opacity="0.24" d="M109.544 58.7322C106.306 57.0778 103.826 54.803 101.966 51.8388C100.174 48.8746 99.2097 45.5657 99.2097 41.8433C99.2097 38.1897 100.105 34.8809 101.966 31.9167C103.757 28.9525 106.306 26.6777 109.475 25.0922C112.644 23.4377 116.296 22.6105 120.361 22.6105C124.426 22.6105 128.008 23.4377 131.246 25.0922C134.484 26.7466 136.965 29.0214 138.756 31.9167C140.547 34.8119 141.443 38.1208 141.443 41.8433C141.443 45.5657 140.547 48.9435 138.756 51.8388C136.965 54.803 134.484 57.0778 131.246 58.7322C128.008 60.3867 124.426 61.2139 120.361 61.2139C116.365 61.2139 112.782 60.3867 109.544 58.7322ZM126.01 48.461C127.457 46.8755 128.215 44.6696 128.215 41.8433C128.215 39.0859 127.457 36.9489 126.01 35.3634C124.563 33.7779 122.634 33.0196 120.361 33.0196C118.087 33.0196 116.158 33.7779 114.711 35.3634C113.264 36.9489 112.507 39.0859 112.507 41.8433C112.507 44.6696 113.264 46.8066 114.711 48.461C116.158 50.0465 118.087 50.8048 120.361 50.8048C122.634 50.8048 124.563 50.0465 126.01 48.461Z" fill="#3626A7"/>
</g>
<path d="M107.477 56.6642C104.239 55.0098 101.759 52.7349 99.8987 49.7708C98.1074 46.8066 97.1429 43.4977 97.1429 39.7752C97.1429 36.1217 98.0385 32.8128 99.8987 29.8487C101.69 26.8845 104.239 24.6096 107.408 23.0241C110.578 21.3697 114.229 20.5425 118.294 20.5425C122.359 20.5425 125.941 21.3697 129.179 23.0241C132.417 24.6786 134.898 26.9534 136.689 29.8487C138.48 32.7439 139.376 36.0528 139.376 39.7752C139.376 43.4977 138.48 46.8755 136.689 49.7708C134.898 52.7349 132.417 55.0098 129.179 56.6642C125.941 58.3186 122.359 59.1459 118.294 59.1459C114.298 59.1459 110.715 58.3186 107.477 56.6642ZM123.943 46.393C125.39 44.8075 126.148 42.6016 126.148 39.7752C126.148 37.0179 125.39 34.8809 123.943 33.2954C122.496 31.7099 120.567 30.9516 118.294 30.9516C116.02 30.9516 114.091 31.7099 112.644 33.2954C111.198 34.8809 110.44 37.0179 110.44 39.7752C110.44 42.6016 111.198 44.7385 112.644 46.393C114.091 47.9785 116.02 48.7367 118.294 48.7367C120.567 48.7367 122.496 47.9785 123.943 46.393Z" fill="#3626A7"/>
<g opacity="0.24">
<path opacity="0.24" d="M173.273 59.0769C172.17 59.7663 170.861 60.3177 169.277 60.6624C167.692 61.0071 165.97 61.2139 164.247 61.2139C159.356 61.2139 155.635 60.042 153.017 57.6293C150.399 55.2166 149.09 51.7009 149.09 46.9444V34.3984H143.647V24.6096H149.09V14.8899H162.18V24.6096H170.723V34.3984H162.18V46.8066C162.18 48.1163 162.525 49.2193 163.214 49.9086C163.903 50.6669 164.867 51.0805 166.039 51.0805C167.554 51.0805 168.863 50.6669 170.034 49.9086L173.273 59.0769Z" fill="#3626A7"/>
</g>
<path d="M171.206 57.0089C170.103 57.6982 168.794 58.2497 167.21 58.5944C165.625 58.939 163.903 59.1459 162.18 59.1459C157.289 59.1459 153.568 57.974 150.95 55.5613C148.332 53.1485 147.023 49.6329 147.023 44.8764V32.3303H141.581V22.5416H147.023V12.8218H160.113V22.5416H168.657V32.3303H160.113V44.7385C160.113 46.0483 160.458 47.1512 161.147 47.8406C161.836 48.5989 162.8 49.0125 163.972 49.0125C165.487 49.0125 166.796 48.5989 167.968 47.8406L171.206 57.0089Z" fill="#3626A7"/>
<g opacity="0.24">
<path opacity="0.24" d="M179.06 17.0958C177.613 15.786 176.855 14.1316 176.855 12.1325C176.855 10.1334 177.613 8.47894 179.06 7.16918C180.507 5.85942 182.436 5.17008 184.847 5.17008C187.258 5.17008 189.187 5.79049 190.634 7.10025C192.081 8.34107 192.839 9.9955 192.839 11.9257C192.839 13.9937 192.081 15.7171 190.634 17.0958C189.187 18.4744 187.258 19.0949 184.847 19.0949C182.436 19.0949 180.507 18.4744 179.06 17.0958ZM178.302 23.2309H191.392V60.5935H178.302V23.2309Z" fill="#3626A7"/>
</g>
<path d="M176.993 15.0277C175.546 13.718 174.788 12.0635 174.788 10.0644C174.788 8.06534 175.546 6.41091 176.993 5.10116C178.44 3.7914 180.369 3.10205 182.78 3.10205C185.191 3.10205 187.121 3.72247 188.567 5.03222C190.014 6.27304 190.772 7.92747 190.772 9.85764C190.772 11.9257 190.014 13.649 188.567 15.0277C187.121 16.4064 185.191 17.0268 182.78 17.0268C180.369 17.0268 178.44 16.4064 176.993 15.0277ZM176.235 21.1629H189.325V58.5254H176.235V21.1629Z" fill="#3626A7"/>
<g opacity="0.24">
<path opacity="0.24" d="M214.128 24.6097H223.015V34.3984H214.472V60.5935H201.382V34.3984H195.939V24.6097H201.382V23.6446C201.382 19.0949 202.76 15.5103 205.516 12.8218C208.272 10.1334 212.061 8.82364 217.021 8.82364C218.675 8.82364 220.259 8.9615 221.844 9.30618C223.429 9.65085 224.669 10.1334 225.702 10.7538L222.395 19.991C221.086 19.2328 219.777 18.8881 218.468 18.8881C217.09 18.8881 216.057 19.3017 215.299 20.1289C214.541 20.9561 214.128 22.1969 214.128 23.7824V24.6097Z" fill="#3626A7"/>
</g>
<path d="M212.061 22.5416H220.948V32.3303H212.405V58.5254H199.315V32.3303H193.872V22.5416H199.315V21.5765C199.315 17.0268 200.693 13.4422 203.449 10.7538C206.205 8.06534 209.994 6.75558 214.954 6.75558C216.608 6.75558 218.193 6.89345 219.777 7.23813C221.362 7.5828 222.602 8.06534 223.635 8.68575L220.328 17.923C219.019 17.1647 217.71 16.82 216.401 16.82C215.023 16.82 213.99 17.2336 213.232 18.0609C212.474 18.8881 212.061 20.1289 212.061 21.7144V22.5416Z" fill="#3626A7"/>
<g opacity="0.24">
<path opacity="0.24" d="M250.298 53.769L272 2.06805H259.53L244.097 39.4995L239.343 27.5738H225.909L237.277 53.769H250.298Z" fill="#3626A7"/>
</g>
<path d="M248.231 51.7009L269.933 0H257.463L242.03 37.4315L237.277 25.5058H223.842L235.21 51.7009H248.231Z" fill="#23F0C7"/>
<g opacity="0.24">
<path opacity="0.24" d="M250.091 55.837H237.552L243.822 71.0026L250.091 55.837Z" fill="#3626A7"/>
</g>
<path d="M248.024 53.769H235.485L241.755 68.9346L248.024 53.769Z" fill="#3626A7"/>
</svg>
