<svg width="53" height="40" viewBox="0 0 53 40" fill="none" xmlns="http://www.w3.org/2000/svg">
<g opacity="0.24">
<path opacity="0.24" d="M7.52919 32.1656C5.29878 30.9812 3.54895 29.328 2.27971 27.2183C1.01047 25.0963 0.36969 22.6905 0.36969 20.0133C0.36969 17.3361 1.01047 14.9427 2.27971 12.8207C3.54895 10.711 5.29878 9.05776 7.52919 7.87338C9.7596 6.68899 12.2734 6.0968 15.0707 6.0968C17.5106 6.0968 19.7164 6.52861 21.6757 7.39222C23.635 8.25584 25.2616 9.51424 26.5678 11.1428L21.7496 15.4979C20.0121 13.4128 17.9172 12.3642 15.4527 12.3642C13.9986 12.3642 12.7047 12.6849 11.571 13.3141C10.4373 13.9557 9.56244 14.8563 8.93398 16.016C8.30552 17.1757 7.99745 18.5082 7.99745 20.0133C7.99745 21.5185 8.30552 22.8509 8.93398 24.0106C9.56244 25.1703 10.4373 26.071 11.571 26.7125C12.7047 27.354 13.9986 27.6625 15.4527 27.6625C17.9172 27.6625 20.0244 26.6138 21.7496 24.5288L26.5678 28.8839C25.2739 30.5247 23.6473 31.7708 21.688 32.6344C19.7287 33.498 17.5229 33.9298 15.083 33.9298C12.2734 33.9422 9.7596 33.35 7.52919 32.1656Z" fill="#3626A7"/>
</g>
<path d="M7.1595 31.7955C4.92909 30.6111 3.17926 28.9579 1.91002 26.8482C0.640781 24.7262 0 22.3204 0 19.6432C0 16.966 0.640781 14.5726 1.91002 12.4505C3.17926 10.3408 4.92909 8.68764 7.1595 7.50326C9.38991 6.31888 11.9037 5.72668 14.701 5.72668C17.1409 5.72668 19.3467 6.15849 21.306 7.0221C23.2653 7.88572 24.8919 9.14413 26.1981 10.7727L21.3799 15.1277C19.6424 13.0427 17.5475 11.9941 15.083 11.9941C13.6289 11.9941 12.335 12.3148 11.2013 12.944C10.0677 13.5856 9.19275 14.4862 8.56429 15.6459C7.93583 16.8056 7.62776 18.138 7.62776 19.6432C7.62776 21.1484 7.93583 22.4808 8.56429 23.6405C9.19275 24.8002 10.0677 25.7008 11.2013 26.3424C12.335 26.9839 13.6289 27.2923 15.083 27.2923C17.5475 27.2923 19.6547 26.2437 21.3799 24.1587L26.1981 28.5137C24.9042 30.1546 23.2776 31.4007 21.3183 32.2643C19.359 33.1279 17.1532 33.5597 14.7133 33.5597C11.9037 33.5721 9.38991 32.9799 7.1595 31.7955Z" fill="#3626A7"/>
<g opacity="0.24">
<path opacity="0.24" d="M40.9607 29.6118L53 0.92749H46.087L37.535 21.7036L34.8856 15.0784H27.4304L33.7642 29.6118H40.9607Z" fill="#3626A7"/>
</g>
<path d="M40.591 29.2417L52.6303 0.557373H45.7173L37.1653 21.3335L34.5159 14.7083H27.0607L33.3946 29.2417H40.591Z" fill="#23F0C7"/>
<g opacity="0.24">
<path opacity="0.24" d="M40.8498 30.7592L33.9121 30.7715L37.3748 39.1732L40.8498 30.7592Z" fill="#3626A7"/>
</g>
<path d="M40.4801 30.389L33.5424 30.4014L37.0051 38.8031L40.4801 30.389Z" fill="#3626A7"/>
</svg>
