<?xml version="1.0" encoding="utf-8"?>
<!-- Generator: Adobe Illustrator 25.0.1, SVG Export Plug-In . SVG Version: 6.00 Build 0)  -->
<svg version="1.1" id="Layer_1" xmlns="http://www.w3.org/2000/svg" xmlns:xlink="http://www.w3.org/1999/xlink" x="0px" y="0px"
	 viewBox="0 0 380 480" style="enable-background:new 0 0 380 480;" xml:space="preserve">
<style type="text/css">
	.st0{fill-rule:evenodd;clip-rule:evenodd;fill:#191847;}
	.st1{fill-rule:evenodd;clip-rule:evenodd;fill:#B28B67;}
	.st2{fill-rule:evenodd;clip-rule:evenodd;fill:#1F28CF;}
	.st3{fill-rule:evenodd;clip-rule:evenodd;fill:#997659;}
	.st4{fill-rule:evenodd;clip-rule:evenodd;fill:#E4E4E4;}
	.st5{fill-rule:evenodd;clip-rule:evenodd;fill:#2B44FF;}
	.st6{fill-rule:evenodd;clip-rule:evenodd;fill:#2026A2;}
</style>
<desc>Created with Sketch.</desc>
<g id="humaaans_x2F_standing-13">
	<g id="humaaan-5" transform="translate(28.000000, 1.000000)">
		
			<g id="Head_x2F_Front_x2F_Long" transform="translate(133.250000, 73.538462) rotate(-15.000000) translate(-133.250000, -73.538462) translate(59.583333, 17.303167)">
			<path id="Hair-Back" class="st0" d="M103.7,48.4c3.7,13.5,8.7,44.5,3.7,49.3H76c0-0.1,0-0.1,0-0.2c-11.6-1.3-20.7-11.2-20.7-23.1
				V52.3C55.2,39.4,65.7,29,78.5,29h2.2C92.2,29,101.8,37.4,103.7,48.4z"/>
			<g id="Head" transform="translate(58.494090, 33.282773)">
				<path class="st1" d="M8.9,37c-5-5.8-8.4-12.9-7.8-20.9C2.8-6.8,35-1.8,41.3,9.8s5.5,41-2.6,43.1c-3.2,0.8-10.1-1.2-17.1-5.4
					L26,78.4H0L8.9,37z"/>
			</g>
			<path id="Hair-Front" class="st0" d="M74.5,66.4c1.2,12.8,0.7,27.3-2.9,30.8H40.2c-1.8-30.1,15.2-18.5,15.2-46.8
				c1.1-1,2.1-2,3-2.9l0-0.8c5.4-11,12.3-16.6,20.7-16.6c12.5,0,16.5,5.8,19.9,10.7c-2.5,8.6-12.3,9.8-21,15.2
				c-1-0.8-2.3-1.3-3.8-1.3c-3.3,0-6,2.6-6,5.9c0,3.3,2.7,5.9,6,5.9C74.3,66.4,74.4,66.4,74.5,66.4z"/>
		</g>
		<g id="Bottom_x2F_Standing_x2F_Skirt" transform="translate(0.000000, 218.452489)">
			<path id="Skirt-Shadow" class="st2" d="M105.5,105.8c26,7.2,48.4,10.9,67.3,10.9s36.4-5.6,52.5-16.7
				c-25.4-7.4-46.4-11.1-62.8-11.1S127,94.5,105.5,105.8z"/>
			<path id="Leg" class="st3" d="M195.3,127.1c-0.3-0.4-0.5-0.8-0.6-1.2C191.2,116.8,135.5,18,130,0h62.6
				c4.2,13.7,23.2,99.8,25.9,117c8.4,27.1,25.8,114.9,28,120.9c2.3,6.4-10.8,13.1-14.3,5.2c-5.6-12.5-18.8-47.1-24.7-68.3
				C202,155.1,197.5,137.2,195.3,127.1z"/>
			<path id="Leg_1_" class="st1" d="M144,139.2c-25.4,6.4-118.5,18-124.9,19.8c-6.6,1.9-12.3-11.6-4.2-14.5
				c12.9-4.6,48.5-15.4,70.1-19.8c17.4-3.5,33.2-6.4,43.8-8.1c-0.9-29.8-5-101.2-2.3-116.6H182c-2.6,14.8-24.5,122.7-28.5,133.5
				C152.2,137.4,148.3,139.1,144,139.2z"/>
			
				<g id="Accessories_x2F_Shoe_x2F_Flat-Sneaker" transform="translate(26.538985, 169.409524) rotate(80.000000) translate(-26.538985, -169.409524) translate(-6.499343, 147.828693)">
				<path id="shoe" class="st4" d="M2.9,27.5c-1.2,3.2-1.8,5.7-1.8,7.3c0,2,0.3,4.8,1,8.6c2.3,0,22.6,0,61.1,0
					c1.6-5.2,0.7-8.1-2.7-8.5c-3.4-0.4-6.3-0.8-8.5-1.1L23.5,21c-0.5-0.2-1.2,0-1.4,0.5c0,0,0,0,0,0L20.2,26
					c-3.2,1.5-5.7,2.2-7.7,2.2c-1.6,0-3.8-0.6-6.7-1.9l0,0c-1.1-0.5-2.4,0-2.9,1.1C2.9,27.4,2.9,27.5,2.9,27.5z"/>
			</g>
			<g id="Accessories_x2F_Shoe_x2F_Flat-Sneaker_1_" transform="translate(225.310568, 214.729269)">
				<path id="shoe_1_" class="st4" d="M2.9,27.5c-1.2,3.2-1.8,5.7-1.8,7.3c0,2,0.3,4.8,1,8.6c2.3,0,22.6,0,61.1,0
					c1.6-5.2,0.7-8.1-2.7-8.5s-6.3-0.8-8.5-1.1L23.5,21c-0.5-0.2-1.2,0-1.4,0.5c0,0,0,0,0,0L20.2,26c-3.2,1.5-5.7,2.2-7.7,2.2
					c-1.6,0-3.8-0.6-6.7-1.9l0,0c-1.1-0.5-2.4,0-2.9,1.1C2.9,27.4,2.9,27.5,2.9,27.5z"/>
			</g>
			<path id="Skirt" class="st5" d="M126.7,0c24.4-7,47.5-7,69.3,0c7.6,34.5,26,48.1,29.2,101c-36.8,18.2-82.3-13-120.2,4.8
				C94.2,80.9,109.4,21,126.7,0z"/>
		</g>
		
			<g id="Body_x2F_Pointing-Forward" transform="translate(161.416667, 207.097285) rotate(-10.000000) translate(-161.416667, -207.097285) translate(22.750000, 105.981900)">
			<path id="Skin" class="st3" d="M171.8,46l37.6-20.5c6.3-7.4,12.4-13.1,18.5-17.2c1.9-0.8,5.1-1.2,2.1,4.1c-3,5.4-6,11.1-4.4,12.8
				c1.5,1.7,5.4-0.7,7.2,2.1c1.2,1.8-5.4,4.7-19.7,8.7l-27.3,24.9L171.8,46z M230.7,63.3l16.5-9c2.3-8.8,5.1-13.2,8.3-13.2
				c2.5-1.1-1.8,9.9,2.9,9c4.7-1,16.1-9.4,18.1-7.7c2.9,2.5,0.3,10.4-2.8,14.3c-5.7,7.3-10.5,9.8-22.2,13
				c-6.1,1.7-12.8,5.1-19.9,10.2L230.7,63.3z"/>
			<path id="Sleeve" class="st6" d="M153.5,41.5c13.2-0.1,30.7-2.9,49.5-14.7l7.4,16.3c-12.9,12.8-31.1,23.3-47,22.8
				C150.8,65.5,144.4,50.4,153.5,41.5z"/>
			<path id="Clothes" class="st2" d="M171.3,67.6c14,3.5,37.4-0.6,70.3-12.3c8.2,16.8,11.9,28.8,11.3,35.9
				c-28.2,14.7-52.4,21.2-72.4,21.6c0.6,11.8-0.8,23-5.6,33.2c-9.9,21-68.2,1.6-87.7,5.4c-12.3-39.6,11.4-55.7,11.5-81.1
				C98.7,42.7,121.1,0,124.4,0l30.1,0C156.1,21.2,164.4,44.6,171.3,67.6z"/>
		</g>
	</g>
</g>
</svg>
