<svg width="25" height="18" viewBox="0 0 25 18" fill="none" xmlns="http://www.w3.org/2000/svg">
<path d="M4.79641 0.634033H24.4328V13.384H4.79641V0.634033ZM14.6146 3.82153C15.4826 3.82153 16.315 4.15736 16.9288 4.75513C17.5425 5.3529 17.8873 6.16366 17.8873 7.00903C17.8873 7.85441 17.5425 8.66516 16.9288 9.26294C16.315 9.86071 15.4826 10.1965 14.6146 10.1965C13.7466 10.1965 12.9142 9.86071 12.3004 9.26294C11.6867 8.66516 11.3419 7.85441 11.3419 7.00903C11.3419 6.16366 11.6867 5.3529 12.3004 4.75513C12.9142 4.15736 13.7466 3.82153 14.6146 3.82153ZM9.16004 2.75903C9.16004 3.32262 8.93017 3.86312 8.521 4.26163C8.11183 4.66015 7.55688 4.88403 6.97822 4.88403V9.13403C7.55688 9.13403 8.11183 9.35792 8.521 9.75643C8.93017 10.1549 9.16004 10.6954 9.16004 11.259H20.0691C20.0691 10.6954 20.299 10.1549 20.7082 9.75643C21.1173 9.35792 21.6723 9.13403 22.251 9.13403V4.88403C21.6723 4.88403 21.1173 4.66015 20.7082 4.26163C20.299 3.86312 20.0691 3.32262 20.0691 2.75903H9.16004ZM0.43277 4.88403H2.61459V15.509H20.0691V17.634H0.43277V4.88403Z" fill="#3626A7"/>
</svg>
